<svg width="1320" height="320" viewBox="0 0 1320 320" xmlns="http://www.w3.org/2000/svg">
  <defs>
    <marker id="arrow" markerWidth="10" markerHeight="7" refX="9" refY="3.5" orient="auto">
      <polygon points="0 0, 10 3.5, 0 7" fill="#555"/>
    </marker>
    <style>
      .title { font: bold 22px 'Segoe UI', Arial, sans-serif; fill: #263238; }
      .node { stroke-width: 2; }
      .io { fill: #fce4ec; stroke: #880e4f; }
      .cpu { fill: #ccff90; stroke: #388e3c; }
      .npu { fill: #ffcdd2; stroke: #c62828; }
      .text { font: bold 14px 'Segoe UI', Arial, sans-serif; fill: #263238; text-anchor: middle; dominant-baseline: middle; }
      .sub { font: 13px Consolas, monospace; fill: #455a64; text-anchor: middle; dominant-baseline: middle; }
      .edge { stroke: #555; stroke-width: 1.8; fill: none; marker-end: url(#arrow); }
      .ref { stroke: #00897b; stroke-width: 1.8; fill: none; marker-end: url(#arrow); stroke-dasharray: 7 5; }
      .label { font: bold 14px Consolas, monospace; fill: #e64a19; text-anchor: middle; }
      .metric { fill: #fff3c4; stroke: #f9a825; }
      .reftext { font: bold 14px Consolas, monospace; fill: #00897b; text-anchor: middle; }
    </style>
  </defs>

  <text x="660" y="30" text-anchor="middle" class="title">RealESRGAN Super-Resolution DAG</text>

  <ellipse cx="100" cy="170" rx="72" ry="28" class="node io"/>
  <text x="100" y="162" class="text">Input</text>
  <text x="100" y="182" class="sub">LR 256x256</text>

  <rect x="210" y="142" width="170" height="56" rx="8" class="node cpu"/>
  <text x="295" y="162" class="text">Preprocess</text>
  <text x="295" y="182" class="sub">RGB / Normalize</text>

  <rect x="450" y="142" width="210" height="56" rx="8" class="node npu"/>
  <text x="555" y="162" class="text">Inference (NPU)</text>
  <text x="555" y="182" class="sub">realesrgan_int8.om</text>

  <rect x="730" y="142" width="170" height="56" rx="8" class="node cpu"/>
  <text x="815" y="162" class="text">Postprocess</text>
  <text x="815" y="182" class="sub">Tensor to BGR Image</text>

  <rect x="965" y="142" width="150" height="56" rx="8" class="node metric"/>
  <text x="1040" y="162" class="text">PSNR</text>
  <text x="1040" y="182" class="sub">SR vs HR</text>

  <ellipse cx="1040" cy="78" rx="88" ry="28" class="node io"/>
  <text x="1040" y="70" class="text">Reference</text>
  <text x="1040" y="90" class="sub">HR 1024x1024</text>

  <ellipse cx="1230" cy="170" rx="72" ry="28" class="node io"/>
  <text x="1230" y="162" class="text">Output</text>
  <text x="1230" y="182" class="sub">SR + PSNR</text>

  <line x1="172" y1="170" x2="210" y2="170" class="edge"/>
  <text x="191" y="132" class="label">BGR Frame</text>

  <line x1="380" y1="170" x2="450" y2="170" class="edge"/>
  <text x="415" y="132" class="label">Input Tensor</text>

  <line x1="660" y1="170" x2="730" y2="170" class="edge"/>
  <text x="695" y="132" class="label">x4 SR Tensor</text>

  <line x1="900" y1="170" x2="965" y2="170" class="edge"/>
  <text x="932" y="132" class="label">SR Image</text>

  <line x1="1115" y1="170" x2="1158" y2="170" class="edge"/>
  <text x="1136" y="132" class="label">Metric + Image</text>

  <line x1="1040" y1="106" x2="1040" y2="142" class="ref"/>
  <text x="1120" y="128" class="reftext">HR Reference</text>
</svg>
